<svg class="icon" viewBox="0 0 24 24"><path d="M18.5,13.5V11.77a3.62,3.62,0,0,0,1.94-1.09l1.56.87L23.5,9,22,8.09a4.93,4.93,0,0,0,0-2.17L23.48,5,22,2.45l-1.53.87A3.62,3.62,0,0,0,18.5,2.23V.5h-3V2.23a3.62,3.62,0,0,0-1.94,1.09L12,2.45,10.51,5,12,5.91a4.93,4.93,0,0,0,0,2.17L10.5,9l1.5,2.6,1.56-.87a3.62,3.62,0,0,0,1.94,1.09V13.5Z"/><path class="cls-1" d="M8.5,23.5V21.77a3.62,3.62,0,0,0,1.94-1.09l1.56.87L13.5,19,12,18.09a4.93,4.93,0,0,0,0-2.17L13.48,15,12,12.45l-1.53.87A3.62,3.62,0,0,0,8.5,12.23V10.5h-3v1.73a3.62,3.62,0,0,0-1.94,1.09L2,12.45.51,15,2,15.91a4.93,4.93,0,0,0,0,2.17L.5,19,2,21.55l1.56-.87A3.62,3.62,0,0,0,5.5,21.77V23.5Z"/><circle  cx="17" cy="7" r="2"/><circle cx="7" cy="17" r="2"/></svg>